PathFileType	4	(X/Y/Z)	/Users/itak/Documents/Research/Walk-IL/dataset/trc/00250_00009.trc
DataRate	CameraRate	NumFrames	NumMarkers	Units	OrigDataRate	OrigDataStartFrame	OrigNumFrames
100.000000	100.000000	4	53	mm	100.000000	70	565
Frame#	Time	RPSI			LPSI			L3			STRN			T10			C7			CLAV			RBAK			LBAK			LSHO			LUPA			LAEL			LAOL			LWTS			LWPS			LFRA			LIFD			LHPS			LHTS			RSHO			RUPA			RAEL			RAOL			RWTS			RWPS			RFRA			RHTS			RHPS			RBHD			LFHD			RFHD			LBHD			LHIP			RHIP			RASI			LASI			LKNE			LTHI			LANK			LTIP			LTOE			LMT1			LMT5			LHEE			RKNE			RTHI			RANK			RTIP			RTOE			RMT1			RMT5			RHEE			RIFD			
		X1	Y1	Z1	X2	Y2	Z2	X3	Y3	Z3	X4	Y4	Z4	X5	Y5	Z5	X6	Y6	Z6	X7	Y7	Z7	X8	Y8	Z8	X9	Y9	Z9	X10	Y10	Z10	X11	Y11	Z11	X12	Y12	Z12	X13	Y13	Z13	X14	Y14	Z14	X15	Y15	Z15	X16	Y16	Z16	X17	Y17	Z17	X18	Y18	Z18	X19	Y19	Z19	X20	Y20	Z20	X21	Y21	Z21	X22	Y22	Z22	X23	Y23	Z23	X24	Y24	Z24	X25	Y25	Z25	X26	Y26	Z26	X27	Y27	Z27	X28	Y28	Z28	X29	Y29	Z29	X30	Y30	Z30	X31	Y31	Z31	X32	Y32	Z32	X33	Y33	Z33	X34	Y34	Z34	X35	Y35	Z35	X36	Y36	Z36	X37	Y37	Z37	X38	Y38	Z38	X39	Y39	Z39	X40	Y40	Z40	X41	Y41	Z41	X42	Y42	Z42	X43	Y43	Z43	X44	Y44	Z44	X45	Y45	Z45	X46	Y46	Z46	X47	Y47	Z47	X48	Y48	Z48	X49	Y49	Z49	X50	Y50	Z50	X51	Y51	Z51	X52	Y52	Z52	X53	Y53	Z53	

71	0.7000000000000001	-1543.99658203125	1057.233642578125	-359.5186462402344	-1537.741455078125	1061.6240234375	-479.0910339355469	-1548.084594726562	1130.158325195312	-440.8064575195312	-1302.397338867188	1329.6318359375	-435.2490234375	-1552.213256835938	1257.187744140625	-437.9677429199219	-1503.040771484375	1519.9404296875	-448.6651000976562	-1333.008544921875	1446.078735351562	-438.0511474609375	-1573.5146484375	1380.7373046875	-374.9238891601562	-1520.515991210938	1476.83056640625	-556.3978881835938	-1431.677490234375	1480.222900390625	-611.0841674804688	-1457.615966796875	1356.961669921875	-683.17333984375	-1433.449951171875	1146.87841796875	-700.5698852539062	-1506.46630859375	1129.843627929688	-655.2464599609375	-1334.2509765625	920.8714599609375	-625.9197998046875	-1355.199584960938	898.9600830078125	-705.7222900390625	-1405.178588867188	1040.48095703125	-707.5997314453125	-1320.1279296875	724.4119873046875	-622.6376342773438	-1333.332275390625	812.0386962890625	-696.4259643554688	-1293.12841796875	821.4030151367188	-640.3450317382812	-1454.613403320312	1494.021728515625	-275.6183166503906	-1475.366821289062	1430.431518554688	-207.2365264892578	-1487.596923828125	1148.8671875	-165.1392517089844	-1517.2431640625	1141.13818359375	-255.2555847167969	-1346.029418945312	935.7926635742188	-205.7514953613281	-1398.594970703125	921.4240112304688	-140.2912902832031	-1458.744506835938	1081.365844726562	-151.2332153320312	-1305.562744140625	815.4117431640625	-189.4213409423828	-1357.12646484375	815.3719482421875	-138.1938781738281	-1482.430786132812	1679.747314453125	-425.6469421386719	-1266.12548828125	1737.320434570312	-466.4686889648438	-1293.230102539062	1738.98681640625	-370.2689819335938	-1403.766723632812	1686.928344726562	-541.8026733398438	-1434.265869140625	995.2469482421875	-614.66845703125	-1455.052368164062	1014.313049316406	-248.7024841308594	-1353.587036132812	1056.462524414062	-281.2503051757812	-1334.257934570312	1035.24462890625	-562.3766479492188	-1416.815551757812	508.9206237792969	-570.3507690429688	-1412.317626953125	652.4697265625	-602.066162109375	-1492.99365234375	38.7271842956543	-555.7755737304688	-1463.95263671875	287.8005065917969	-575.5653686523438	-1277.309448242188	46.54133224487305	-506.0592651367188	-1343.6923828125	41.69506072998047	-460.4031372070312	-1366.028686523438	39.75686264038086	-576.2635498046875	-1553.527221679688	45.54089736938477	-502.3835754394531	-1435.302856445312	519.4290161132812	-288.1510009765625	-1403.672119140625	786.824951171875	-240.0884246826172	-1504.198852539062	41.11107635498047	-321.8460693359375	-1432.361083984375	404.8824462890625	-306.2164916992188	-1289.319213867188	46.50868225097656	-350.43994140625	-1343.263793945312	41.91467666625977	-397.1510009765625	-1394.964111328125	43.17604827880859	-289.8042297363281	-1563.016967773438	36.3004150390625	-382.7430114746094	-1329.299194335938	742.17041015625	-208.9378509521484	
72	0.71	-1543.947387695312	1057.226196289062	-359.3656311035156	-1537.7060546875	1061.628295898438	-478.9656372070312	-1548.015014648438	1130.231567382812	-440.66455078125	-1302.350952148438	1329.579956054688	-435.1895141601562	-1552.091552734375	1257.258911132812	-437.8099060058594	-1502.786865234375	1520.026733398438	-448.4996337890625	-1332.744995117188	1446.0576171875	-437.9515991210938	-1573.296264648438	1380.823120117188	-374.7564697265625	-1520.2158203125	1476.892456054688	-556.2022705078125	-1431.407470703125	1480.2734375	-610.9560546875	-1457.5341796875	1357.07421875	-683.1132202148438	-1433.886108398438	1147.01025390625	-700.7103271484375	-1506.87353515625	1130.102905273438	-655.2858276367188	-1335.684448242188	920.2591552734375	-626.8112182617188	-1356.788330078125	898.7391357421875	-706.682861328125	-1406.0654296875	1040.509033203125	-708.0383911132812	-1322.6337890625	723.683837890625	-624.2989501953125	-1335.4716796875	811.6522216796875	-697.7239990234375	-1295.2060546875	820.5070190429688	-641.6443481445312	-1454.28466796875	1494.020263671875	-275.4490356445312	-1475.094360351562	1430.44384765625	-207.0957946777344	-1487.446655273438	1148.92431640625	-164.9455261230469	-1517.169067382812	1141.199340820312	-255.1158294677734	-1346.3115234375	935.51708984375	-205.4062652587891	-1398.988159179688	921.3394775390625	-139.982421875	-1458.802856445312	1081.380981445312	-151.0463562011719	-1306.174682617188	815.0670776367188	-189.0260467529297	-1357.861083984375	815.2224731445312	-137.7854766845703	-1482.123901367188	1679.75439453125	-425.4960632324219	-1265.85302734375	1737.264770507812	-466.3238525390625	-1292.832397460938	1738.924072265625	-370.084228515625	-1403.489135742188	1686.953125	-541.6336059570312	-1434.137939453125	995.2286376953125	-614.4812622070312	-1454.980102539062	1014.318603515625	-248.5273895263672	-1353.537231445312	1056.446655273438	-281.1015625	-1334.194702148438	1035.212036132812	-562.2291870117188	-1416.82080078125	508.9203186035156	-570.268310546875	-1412.339233398438	652.483154296875	-601.960205078125	-1492.990478515625	38.72465896606445	-555.7726440429688	-1463.960693359375	287.8137817382812	-575.5109252929688	-1277.300659179688	46.54165649414062	-506.0638732910156	-1343.690063476562	41.69330215454102	-460.3996276855469	-1366.027709960938	39.7574348449707	-576.2612915039062	-1553.5361328125	45.54642486572266	-502.3716430664062	-1435.257080078125	519.4014282226562	-288.1146240234375	-1403.5458984375	786.7620239257812	-239.8968505859375	-1504.199584960938	41.12238311767578	-321.8525695800781	-1432.29541015625	404.8536071777344	-306.1644897460938	-1289.327392578125	46.51694869995117	-350.4374694824219	-1343.254760742188	41.90103149414062	-397.1572265625	-1394.952514648438	43.18562698364258	-289.80908203125	-1563.033813476562	36.30567932128906	-382.7546997070312	-1330.031127929688	741.8843383789062	-208.4564666748047	
73	0.72	-1543.898315429688	1057.221557617188	-359.2158508300781	-1537.6708984375	1061.642211914062	-478.8370056152344	-1547.938110351562	1130.305297851562	-440.5166625976562	-1302.258666992188	1329.53173828125	-435.1259155273438	-1551.9619140625	1257.331787109375	-437.6497497558594	-1502.53955078125	1520.117919921875	-448.3336791992188	-1332.473754882812	1446.03857421875	-437.8471374511719	-1573.067504882812	1380.908569335938	-374.5867004394531	-1519.929443359375	1476.963256835938	-556.0167236328125	-1431.125	1480.326538085938	-610.8201904296875	-1457.444213867188	1357.189697265625	-683.0509643554688	-1434.318237304688	1147.145385742188	-700.849365234375	-1507.27734375	1130.366943359375	-655.3203735351562	-1337.083251953125	919.67041015625	-627.7387084960938	-1358.388061523438	898.5341796875	-707.65771484375	-1406.965942382812	1040.548095703125	-708.485595703125	-1325.140869140625	723.0160522460938	-625.97900390625	-1337.612670898438	811.2822875976562	-699.0372314453125	-1297.31103515625	819.6314697265625	-642.958740234375	-1453.958862304688	1494.016845703125	-275.27880859375	-1474.822875976562	1430.45458984375	-206.95263671875	-1487.2919921875	1148.979858398438	-164.7595977783203	-1517.063232421875	1141.261352539062	-254.9673309326172	-1346.549560546875	935.2503662109375	-205.0667572021484	-1399.346435546875	921.261474609375	-139.6751403808594	-1458.846313476562	1081.395629882812	-150.8630828857422	-1306.7978515625	814.732666015625	-188.6333923339844	-1358.561401367188	815.106201171875	-137.4006195068359	-1481.815307617188	1679.759521484375	-425.3546447753906	-1265.549682617188	1737.208740234375	-466.1707153320312	-1292.399047851562	1738.85302734375	-369.9085998535156	-1403.228759765625	1686.974487304688	-541.4788208007812	-1434.018798828125	995.215087890625	-614.2987670898438	-1454.905517578125	1014.326599121094	-248.3441925048828	-1353.489868164062	1056.42578125	-280.9522094726562	-1334.122314453125	1035.174682617188	-562.076904296875	-1416.835083007812	508.9179382324219	-570.1828002929688	-1412.389282226562	652.5003051757812	-601.8529052734375	-1492.986572265625	38.72216796875	-555.7694091796875	-1463.979370117188	287.8314819335938	-575.458740234375	-1277.292602539062	46.54242706298828	-506.0694274902344	-1343.688598632812	41.69150543212891	-460.3964233398438	-1366.02783203125	39.75788497924805	-576.261474609375	-1553.544799804688	45.55387496948242	-502.3610229492188	-1435.21826171875	519.3765869140625	-288.0762329101562	-1403.423706054688	786.6897583007812	-239.6950225830078	-1504.199096679688	41.13288497924805	-321.8567810058594	-1432.256591796875	404.8238525390625	-306.1050720214844	-1289.335815429688	46.52647399902344	-350.4327392578125	-1343.245483398438	41.88545227050781	-397.1617126464844	-1394.944702148438	43.19394683837891	-289.8122253417969	-1563.026489257812	36.32135009765625	-382.76513671875	-1330.732299804688	741.6245727539062	-207.9865417480469	
74	0.73	-1543.844482421875	1057.220825195312	-359.0652465820312	-1537.633422851562	1061.6669921875	-478.7013549804688	-1547.849243164062	1130.3798828125	-440.3599853515625	-1302.132690429688	1329.48095703125	-435.0534973144531	-1551.822631835938	1257.406982421875	-437.4852905273438	-1502.295654296875	1520.211059570312	-448.1683959960938	-1332.204833984375	1446.019287109375	-437.7369384765625	-1572.827026367188	1380.993041992188	-374.4146423339844	-1519.660400390625	1477.045776367188	-555.8449096679688	-1430.83251953125	1480.380615234375	-610.6773071289062	-1457.347534179688	1357.307983398438	-682.9869384765625	-1434.744750976562	1147.280151367188	-700.9873046875	-1507.669067382812	1130.634155273438	-655.3496704101562	-1338.4599609375	919.0950927734375	-628.6923217773438	-1359.996459960938	898.3463745117188	-708.6416015625	-1407.874633789062	1040.597534179688	-708.9390258789062	-1327.639770507812	722.3939819335938	-627.66552734375	-1339.7431640625	810.9308471679688	-700.357421875	-1299.41162109375	818.8079833984375	-644.2771606445312	-1453.63671875	1494.0126953125	-275.1089172363281	-1474.553100585938	1430.464721679688	-206.8075408935547	-1487.139282226562	1149.033935546875	-164.5828094482422	-1516.929809570312	1141.325927734375	-254.8113555908203	-1346.749755859375	934.9974365234375	-204.7354125976562	-1399.670288085938	921.1912231445312	-139.3729400634766	-1458.872924804688	1081.41064453125	-150.6820526123047	-1307.42578125	814.4105834960938	-188.2447509765625	-1359.20556640625	815.0194702148438	-137.0455169677734	-1481.504760742188	1679.7646484375	-425.2169189453125	-1265.202758789062	1737.150024414062	-466.00244140625	-1291.944702148438	1738.77392578125	-369.7426452636719	-1402.970336914062	1686.99072265625	-541.3336791992188	-1433.900756835938	995.2060546875	-614.1162109375	-1454.825439453125	1014.338012695312	-248.1513977050781	-1353.442993164062	1056.400512695312	-280.803955078125	-1334.04150390625	1035.133911132812	-561.920166015625	-1416.860229492188	508.9147644042969	-570.095703125	-1412.464477539062	652.5197143554688	-601.7450561523438	-1492.981689453125	38.7212028503418	-555.7657470703125	-1464.006225585938	287.8525085449219	-575.4082641601562	-1277.285522460938	46.54330825805664	-506.0751342773438	-1343.687866210938	41.68959426879883	-460.3940124511719	-1366.029174804688	39.75822830200195	-576.264404296875	-1553.552368164062	45.56224060058594	-502.3518371582031	-1435.187622070312	519.3541259765625	-288.0338134765625	-1403.290893554688	786.6087646484375	-239.5007629394531	-1504.197143554688	41.14201354980469	-321.8587646484375	-1432.244384765625	404.7982482910156	-306.0393981933594	-1289.34375	46.53635787963867	-350.4265441894531	-1343.2412109375	41.87245559692383	-397.1658935546875	-1394.941162109375	43.20015335083008	-289.8136596679688	-1562.99267578125	36.34571075439453	-382.7744140625	-1331.392944335938	741.3915405273438	-207.5332183837891	
